<svg width="32" height="32" viewBox="0 0 32 32" fill="none" xmlns="http://www.w3.org/2000/svg">
<path fill-rule="evenodd" clip-rule="evenodd" d="M6.66602 6.66683C5.92964 6.66683 5.33268 7.26378 5.33268 8.00016V26.6668C5.33268 27.4032 5.92964 28.0002 6.66602 28.0002H25.3327C26.0691 28.0002 26.666 27.4032 26.666 26.6668V8.00016C26.666 7.26378 26.0691 6.66683 25.3327 6.66683H6.66602ZM2.66602 8.00016C2.66602 5.79102 4.45688 4.00016 6.66602 4.00016H25.3327C27.5418 4.00016 29.3327 5.79102 29.3327 8.00016V26.6668C29.3327 28.876 27.5418 30.6668 25.3327 30.6668H6.66602C4.45688 30.6668 2.66602 28.876 2.66602 26.6668V8.00016Z" fill="white"/>
<path fill-rule="evenodd" clip-rule="evenodd" d="M21.3327 1.3335C22.0691 1.3335 22.666 1.93045 22.666 2.66683V8.00016C22.666 8.73654 22.0691 9.3335 21.3327 9.3335C20.5963 9.3335 19.9993 8.73654 19.9993 8.00016V2.66683C19.9993 1.93045 20.5963 1.3335 21.3327 1.3335Z" fill="white"/>
<path fill-rule="evenodd" clip-rule="evenodd" d="M10.666 1.3335C11.4024 1.3335 11.9993 1.93045 11.9993 2.66683V8.00016C11.9993 8.73654 11.4024 9.3335 10.666 9.3335C9.92964 9.3335 9.33268 8.73654 9.33268 8.00016V2.66683C9.33268 1.93045 9.92964 1.3335 10.666 1.3335Z" fill="white"/>
<path fill-rule="evenodd" clip-rule="evenodd" d="M2.66602 13.3335C2.66602 12.5971 3.26297 12.0002 3.99935 12.0002H27.9993C28.7357 12.0002 29.3327 12.5971 29.3327 13.3335C29.3327 14.0699 28.7357 14.6668 27.9993 14.6668H3.99935C3.26297 14.6668 2.66602 14.0699 2.66602 13.3335Z" fill="white"/>
</svg>
